<svg width="33" height="37" viewBox="0 0 33 37" fill="none" xmlns="http://www.w3.org/2000/svg">
<g filter="url(#filter0_d_93_61)">
<rect width="30.5819" height="34.4047" rx="2" fill="#7CC9B3"/>
<rect x="0.5" y="0.5" width="29.5819" height="33.4047" rx="1.5" stroke="black"/>
</g>
<path d="M15.2327 25.1308C13.3261 25.1308 11.8154 24.6028 10.7007 23.5468C9.58608 22.4761 9.02875 20.9508 9.02875 18.9708V15.2748C9.02875 13.2948 9.58608 11.7768 10.7007 10.7208C11.8154 9.65009 13.3261 9.11475 15.2327 9.11475C17.1247 9.11475 18.5841 9.63542 19.6107 10.6768C20.6521 11.7034 21.1727 13.1188 21.1727 14.9228V15.0548H18.3127V14.8348C18.3127 13.9254 18.0561 13.1774 17.5427 12.5908C17.0441 12.0041 16.2741 11.7108 15.2327 11.7108C14.2061 11.7108 13.3994 12.0261 12.8127 12.6568C12.2261 13.2874 11.9327 14.1454 11.9327 15.2308V19.0148C11.9327 20.0854 12.2261 20.9434 12.8127 21.5888C13.3994 22.2194 14.2061 22.5348 15.2327 22.5348C16.2741 22.5348 17.0441 22.2414 17.5427 21.6548C18.0561 21.0534 18.3127 20.3054 18.3127 19.4108V19.0148H21.1727V19.3228C21.1727 21.1268 20.6521 22.5494 19.6107 23.5908C18.5841 24.6174 17.1247 25.1308 15.2327 25.1308Z" fill="white"/>
<defs>
<filter id="filter0_d_93_61" x="0" y="0" width="32.5819" height="36.4047" filterUnits="userSpaceOnUse" color-interpolation-filters="sRGB">
<feFlood flood-opacity="0" result="BackgroundImageFix"/>
<feColorMatrix in="SourceAlpha" type="matrix" values="0 0 0 0 0 0 0 0 0 0 0 0 0 0 0 0 0 0 127 0" result="hardAlpha"/>
<feOffset dx="2" dy="2"/>
<feComposite in2="hardAlpha" operator="out"/>
<feColorMatrix type="matrix" values="0 0 0 0 0 0 0 0 0 0 0 0 0 0 0 0 0 0 1 0"/>
<feBlend mode="normal" in2="BackgroundImageFix" result="effect1_dropShadow_93_61"/>
<feBlend mode="normal" in="SourceGraphic" in2="effect1_dropShadow_93_61" result="shape"/>
</filter>
</defs>
</svg>
