<svg width="521" height="711" viewBox="0 0 521 711" fill="none" xmlns="http://www.w3.org/2000/svg">
<g filter="url(#filter0_d_89_231)">
<rect width="500.391" height="690.863" rx="35" fill="white"/>
<rect x="3" y="3" width="494.391" height="684.863" rx="32" stroke="black" stroke-width="6"/>
<rect x="34" y="20" width="432.391" height="607.863" fill="white" stroke="black" stroke-width="6"/>
<circle cx="250.196" cy="654.864" r="19" fill="black"/>
</g>
<rect x="109" y="576" width="114" height="7" rx="3.5" fill="#65C7D0"/>
<rect x="228" y="576" width="31" height="7" rx="3.5" fill="#65C7D0"/>
<rect x="264" y="576" width="31" height="7" rx="3.5" fill="#7CC9B3"/>
<rect x="300" y="576" width="114" height="7" rx="3.5" fill="#7CC9B3"/>
<rect x="419" y="576" width="31" height="7" rx="3.5" fill="#D9D9D9"/>
<line x1="35" y1="76" x2="466" y2="76" stroke="black" stroke-width="2"/>
<rect x="109" y="155" width="162" height="7" rx="3.5" fill="#7CC9B3"/>
<rect x="276" y="155" width="43" height="7" rx="3.5" fill="#D9D9D9"/>
<rect x="324" y="155" width="43" height="7" rx="3.5" fill="#7CC9B3"/>
<rect x="109" y="197" width="114" height="7" rx="3.5" fill="#F8BED4"/>
<rect x="228" y="197" width="31" height="7" rx="3.5" fill="#7CC9B3"/>
<rect x="264" y="197" width="31" height="7" rx="3.5" fill="#7CC9B3"/>
<rect x="300" y="197" width="114" height="7" rx="3.5" fill="#65C7D0"/>
<rect x="419" y="197" width="31" height="7" rx="3.5" fill="#D9D9D9"/>
<rect x="249" y="322" width="37" height="7" rx="3.5" fill="#F8BED4"/>
<rect x="207" y="322" width="37" height="7" rx="3.5" fill="#65C7D0"/>
<rect x="109" y="322" width="93" height="7" rx="3.5" fill="#7CC9B3"/>
<rect x="109" y="365" width="64" height="7" rx="3.5" fill="#65C7D0"/>
<rect x="178" y="365" width="64" height="7" rx="3.5" fill="#65C7D0"/>
<rect x="247" y="365" width="129" height="7" rx="3.5" fill="#65C7D0"/>
<rect x="381" y="365" width="34" height="7" rx="3.5" fill="#D9D9D9"/>
<rect x="109" y="407" width="162" height="7" rx="3.5" fill="#F8BED4"/>
<rect x="276" y="407" width="43" height="7" rx="3.5" fill="#D9D9D9"/>
<rect x="324" y="407" width="43" height="7" rx="3.5" fill="#D9D9D9"/>
<rect x="109" y="449" width="162" height="7" rx="3.5" fill="#65C7D0"/>
<rect x="276" y="449" width="43" height="7" rx="3.5" fill="#F8BED4"/>
<rect x="324" y="449" width="43" height="7" rx="3.5" fill="#65C7D0"/>
<rect x="109" y="490" width="64" height="7" rx="3.5" fill="#D9D9D9"/>
<rect x="178" y="490" width="64" height="7" rx="3.5" fill="#D9D9D9"/>
<rect x="247" y="490" width="129" height="7" rx="3.5" fill="#7CC9B3"/>
<rect x="381" y="490" width="34" height="7" rx="3.5" fill="#65C7D0"/>
<path d="M109 536.5C109 534.567 110.567 533 112.5 533H198.5C200.433 533 202 534.567 202 536.5V536.5C202 538.433 200.433 540 198.5 540H112.5C110.567 540 109 538.433 109 536.5V536.5Z" fill="#7CC9B3"/>
<rect x="207" y="533" width="37" height="7" rx="3.5" fill="#65C7D0"/>
<rect x="249" y="533" width="37" height="7" rx="3.5" fill="#7CC9B3"/>
<rect x="109" y="113" width="64" height="7" rx="3.5" fill="#F8BED4"/>
<rect x="178" y="113" width="64" height="7" rx="3.5" fill="#F8BED4"/>
<rect x="247" y="113" width="129" height="7" rx="3.5" fill="#65C7D0"/>
<rect x="381" y="113" width="34" height="7" rx="3.5" fill="#7CC9B3"/>
<rect width="15" height="20" transform="translate(74 106)" fill="#62C0A5"/>
<rect width="15" height="20" transform="translate(74 148)" fill="#62C0A5"/>
<rect width="15" height="20" transform="translate(74 190)" fill="#F8BED4"/>
<rect width="15" height="20" transform="translate(74 232)" fill="#65C7D0"/>
<rect width="15" height="20" transform="translate(74 274)" fill="#F9CADC"/>
<rect width="15" height="20" transform="translate(74 316)" fill="#62C0A5"/>
<rect width="15" height="20" transform="translate(74 358)" fill="#62C0A5"/>
<rect width="15" height="20" transform="translate(74 400)" fill="#65C7D0"/>
<rect width="15" height="20" transform="translate(74 442)" fill="#D9D9D9"/>
<rect width="15" height="20" transform="translate(74 484)" fill="#62C0A5"/>
<rect width="15" height="20" transform="translate(74 526)" fill="#62C0A5"/>
<rect width="15" height="20" transform="translate(74 568)" fill="#F8BED4"/>
<rect x="291" y="238" width="37" height="7" rx="3.5" fill="#F8BED4"/>
<rect x="249" y="238" width="37" height="7" rx="3.5" fill="#F8BED4"/>
<rect x="151" y="238" width="93" height="7" rx="3.5" fill="#65C7D0"/>
<rect x="291" y="281" width="37" height="7" rx="3.5" fill="#D9D9D9"/>
<rect x="249" y="281" width="37" height="7" rx="3.5" fill="#D9D9D9"/>
<rect x="151" y="281" width="93" height="7" rx="3.5" fill="#7CC9B3"/>
<circle cx="86.5" cy="48.5" r="11.5" fill="white" stroke="#62C0A5" stroke-width="2"/>
<circle cx="121.5" cy="48.5" r="11.5" fill="white" stroke="#62C0A5" stroke-width="2"/>
<circle cx="156.5" cy="48.5" r="11.5" fill="#62C0A5" stroke="black" stroke-width="2"/>
<defs>
<filter id="filter0_d_89_231" x="0" y="0" width="520.391" height="710.864" filterUnits="userSpaceOnUse" color-interpolation-filters="sRGB">
<feFlood flood-opacity="0" result="BackgroundImageFix"/>
<feColorMatrix in="SourceAlpha" type="matrix" values="0 0 0 0 0 0 0 0 0 0 0 0 0 0 0 0 0 0 127 0" result="hardAlpha"/>
<feOffset dx="20" dy="20"/>
<feComposite in2="hardAlpha" operator="out"/>
<feColorMatrix type="matrix" values="0 0 0 0 0.972549 0 0 0 0 0.745098 0 0 0 0 0.831373 0 0 0 1 0"/>
<feBlend mode="normal" in2="BackgroundImageFix" result="effect1_dropShadow_89_231"/>
<feBlend mode="normal" in="SourceGraphic" in2="effect1_dropShadow_89_231" result="shape"/>
</filter>
</defs>
</svg>
