<svg width="258" height="453" viewBox="0 0 258 453" fill="none" xmlns="http://www.w3.org/2000/svg">
<g filter="url(#filter0_d_16_247)">
<rect x="3" y="3" width="242" height="437" rx="32" fill="white" stroke="black" stroke-width="6"/>
<path d="M73 0H176C176 8.83656 168.837 16 160 16H89C80.1634 16 73 8.83656 73 0Z" fill="black"/>
<g filter="url(#filter1_d_16_247)">
<rect x="35" y="53" width="34.4047" height="34.4047" rx="2" fill="#7CC9B3"/>
<rect x="35.5" y="53.5" width="33.4047" height="33.4047" rx="1.5" stroke="black"/>
</g>
<path d="M52.9936 78.1307C51.087 78.1307 49.5763 77.6027 48.4616 76.5467C47.347 75.4761 46.7896 73.9507 46.7896 71.9707V68.2747C46.7896 66.2947 47.347 64.7767 48.4616 63.7207C49.5763 62.6501 51.087 62.1147 52.9936 62.1147C54.8856 62.1147 56.345 62.6354 57.3716 63.6767C58.413 64.7034 58.9336 66.1187 58.9336 67.9227V68.0547H56.0736V67.8347C56.0736 66.9254 55.817 66.1774 55.3036 65.5907C54.805 65.0041 54.035 64.7107 52.9936 64.7107C51.967 64.7107 51.1603 65.0261 50.5736 65.6567C49.987 66.2874 49.6936 67.1454 49.6936 68.2307V72.0147C49.6936 73.0854 49.987 73.9434 50.5736 74.5887C51.1603 75.2194 51.967 75.5347 52.9936 75.5347C54.035 75.5347 54.805 75.2414 55.3036 74.6547C55.817 74.0534 56.0736 73.3054 56.0736 72.4107V72.0147H58.9336V72.3227C58.9336 74.1267 58.413 75.5494 57.3716 76.5907C56.345 77.6174 54.8856 78.1307 52.9936 78.1307Z" fill="white"/>
<path d="M89.3765 76.196C88.1632 76.196 87.2018 75.86 86.4925 75.188C85.7832 74.5067 85.4285 73.536 85.4285 72.276V69.924C85.4285 68.664 85.7832 67.698 86.4925 67.026C87.2018 66.3447 88.1632 66.004 89.3765 66.004C90.5805 66.004 91.5092 66.3353 92.1625 66.998C92.8252 67.6513 93.1565 68.552 93.1565 69.7V69.784H91.3365V69.644C91.3365 69.0653 91.1732 68.5893 90.8465 68.216C90.5292 67.8427 90.0392 67.656 89.3765 67.656C88.7232 67.656 88.2098 67.8567 87.8365 68.258C87.4632 68.6593 87.2765 69.2053 87.2765 69.896V72.304C87.2765 72.9853 87.4632 73.5313 87.8365 73.942C88.2098 74.3433 88.7232 74.544 89.3765 74.544C90.0392 74.544 90.5292 74.3573 90.8465 73.984C91.1732 73.6013 91.3365 73.1253 91.3365 72.556V72.304H93.1565V72.5C93.1565 73.648 92.8252 74.5533 92.1625 75.216C91.5092 75.8693 90.5805 76.196 89.3765 76.196ZM96.8743 76.196C96.3796 76.196 95.9363 76.112 95.5443 75.944C95.1523 75.7667 94.8396 75.5147 94.6063 75.188C94.3823 74.852 94.2703 74.446 94.2703 73.97C94.2703 73.494 94.3823 73.0973 94.6063 72.78C94.8396 72.4533 95.1569 72.2107 95.5583 72.052C95.9689 71.884 96.4356 71.8 96.9583 71.8H98.8623V71.408C98.8623 71.0813 98.7596 70.8153 98.5543 70.61C98.3489 70.3953 98.0223 70.288 97.5743 70.288C97.1356 70.288 96.8089 70.3907 96.5943 70.596C96.3796 70.792 96.2396 71.0487 96.1743 71.366L94.5503 70.82C94.6623 70.4653 94.8396 70.1433 95.0823 69.854C95.3343 69.5553 95.6656 69.3173 96.0763 69.14C96.4963 68.9533 97.0049 68.86 97.6023 68.86C98.5169 68.86 99.2403 69.0887 99.7723 69.546C100.304 70.0033 100.57 70.666 100.57 71.534V74.124C100.57 74.404 100.701 74.544 100.962 74.544H101.522V76H100.346C100.001 76 99.7163 75.916 99.4923 75.748C99.2683 75.58 99.1563 75.356 99.1563 75.076V75.062H98.8903C98.8529 75.174 98.7689 75.3233 98.6383 75.51C98.5076 75.6873 98.3023 75.846 98.0223 75.986C97.7423 76.126 97.3596 76.196 96.8743 76.196ZM97.1823 74.768C97.6769 74.768 98.0783 74.6327 98.3863 74.362C98.7036 74.082 98.8623 73.7133 98.8623 73.256V73.116H97.0843C96.7576 73.116 96.5009 73.186 96.3143 73.326C96.1276 73.466 96.0343 73.662 96.0343 73.914C96.0343 74.166 96.1323 74.3713 96.3283 74.53C96.5243 74.6887 96.8089 74.768 97.1823 74.768ZM102.812 76V69.056H104.548V69.966H104.8C104.912 69.7233 105.122 69.4947 105.43 69.28C105.738 69.056 106.205 68.944 106.83 68.944C107.371 68.944 107.843 69.07 108.244 69.322C108.655 69.5647 108.972 69.9053 109.196 70.344C109.42 70.7733 109.532 71.2773 109.532 71.856V76H107.768V71.996C107.768 71.4733 107.637 71.0813 107.376 70.82C107.124 70.5587 106.76 70.428 106.284 70.428C105.743 70.428 105.323 70.61 105.024 70.974C104.725 71.3287 104.576 71.828 104.576 72.472V76H102.812ZM114.239 76.196C113.688 76.196 113.17 76.0607 112.685 75.79C112.209 75.51 111.826 75.104 111.537 74.572C111.248 74.04 111.103 73.396 111.103 72.64V72.416C111.103 71.66 111.248 71.016 111.537 70.484C111.826 69.952 112.209 69.5507 112.685 69.28C113.161 69 113.679 68.86 114.239 68.86C114.659 68.86 115.009 68.9113 115.289 69.014C115.578 69.1073 115.812 69.2287 115.989 69.378C116.166 69.5273 116.302 69.686 116.395 69.854H116.647V66.2H118.411V76H116.675V75.16H116.423C116.264 75.4213 116.017 75.6593 115.681 75.874C115.354 76.0887 114.874 76.196 114.239 76.196ZM114.771 74.656C115.312 74.656 115.765 74.4833 116.129 74.138C116.493 73.7833 116.675 73.27 116.675 72.598V72.458C116.675 71.786 116.493 71.2773 116.129 70.932C115.774 70.5773 115.322 70.4 114.771 70.4C114.23 70.4 113.777 70.5773 113.413 70.932C113.049 71.2773 112.867 71.786 112.867 72.458V72.598C112.867 73.27 113.049 73.7833 113.413 74.138C113.777 74.4833 114.23 74.656 114.771 74.656ZM120.367 76V69.056H122.131V76H120.367ZM121.249 68.244C120.931 68.244 120.661 68.1413 120.437 67.936C120.222 67.7307 120.115 67.46 120.115 67.124C120.115 66.788 120.222 66.5173 120.437 66.312C120.661 66.1067 120.931 66.004 121.249 66.004C121.575 66.004 121.846 66.1067 122.061 66.312C122.275 66.5173 122.383 66.788 122.383 67.124C122.383 67.46 122.275 67.7307 122.061 67.936C121.846 68.1413 121.575 68.244 121.249 68.244ZM126.885 76.196C126.335 76.196 125.817 76.0607 125.331 75.79C124.855 75.51 124.473 75.104 124.183 74.572C123.894 74.04 123.749 73.396 123.749 72.64V72.416C123.749 71.66 123.894 71.016 124.183 70.484C124.473 69.952 124.855 69.5507 125.331 69.28C125.807 69 126.325 68.86 126.885 68.86C127.305 68.86 127.655 68.9113 127.935 69.014C128.225 69.1073 128.458 69.2287 128.635 69.378C128.813 69.5273 128.948 69.686 129.041 69.854H129.293V66.2H131.057V76H129.321V75.16H129.069C128.911 75.4213 128.663 75.6593 128.327 75.874C128.001 76.0887 127.52 76.196 126.885 76.196ZM127.417 74.656C127.959 74.656 128.411 74.4833 128.775 74.138C129.139 73.7833 129.321 73.27 129.321 72.598V72.458C129.321 71.786 129.139 71.2773 128.775 70.932C128.421 70.5773 127.968 70.4 127.417 70.4C126.876 70.4 126.423 70.5773 126.059 70.932C125.695 71.2773 125.513 71.786 125.513 72.458V72.598C125.513 73.27 125.695 73.7833 126.059 74.138C126.423 74.4833 126.876 74.656 127.417 74.656ZM135.169 76.196C134.675 76.196 134.231 76.112 133.839 75.944C133.447 75.7667 133.135 75.5147 132.901 75.188C132.677 74.852 132.565 74.446 132.565 73.97C132.565 73.494 132.677 73.0973 132.901 72.78C133.135 72.4533 133.452 72.2107 133.853 72.052C134.264 71.884 134.731 71.8 135.253 71.8H137.157V71.408C137.157 71.0813 137.055 70.8153 136.849 70.61C136.644 70.3953 136.317 70.288 135.869 70.288C135.431 70.288 135.104 70.3907 134.889 70.596C134.675 70.792 134.535 71.0487 134.469 71.366L132.845 70.82C132.957 70.4653 133.135 70.1433 133.377 69.854C133.629 69.5553 133.961 69.3173 134.371 69.14C134.791 68.9533 135.3 68.86 135.897 68.86C136.812 68.86 137.535 69.0887 138.067 69.546C138.599 70.0033 138.865 70.666 138.865 71.534V74.124C138.865 74.404 138.996 74.544 139.257 74.544H139.817V76H138.641C138.296 76 138.011 75.916 137.787 75.748C137.563 75.58 137.451 75.356 137.451 75.076V75.062H137.185C137.148 75.174 137.064 75.3233 136.933 75.51C136.803 75.6873 136.597 75.846 136.317 75.986C136.037 76.126 135.655 76.196 135.169 76.196ZM135.477 74.768C135.972 74.768 136.373 74.6327 136.681 74.362C136.999 74.082 137.157 73.7133 137.157 73.256V73.116H135.379C135.053 73.116 134.796 73.186 134.609 73.326C134.423 73.466 134.329 73.662 134.329 73.914C134.329 74.166 134.427 74.3713 134.623 74.53C134.819 74.6887 135.104 74.768 135.477 74.768ZM143.261 76C142.804 76 142.43 75.86 142.141 75.58C141.861 75.2907 141.721 74.908 141.721 74.432V70.512H139.985V69.056H141.721V66.9H143.485V69.056H145.389V70.512H143.485V74.124C143.485 74.404 143.616 74.544 143.877 74.544H145.221V76H143.261ZM149.904 76.196C149.213 76.196 148.602 76.0513 148.07 75.762C147.547 75.4633 147.136 75.048 146.838 74.516C146.548 73.9747 146.404 73.34 146.404 72.612V72.444C146.404 71.716 146.548 71.086 146.838 70.554C147.127 70.0127 147.533 69.5973 148.056 69.308C148.578 69.0093 149.185 68.86 149.876 68.86C150.557 68.86 151.15 69.014 151.654 69.322C152.158 69.6207 152.55 70.0407 152.83 70.582C153.11 71.114 153.25 71.7347 153.25 72.444V73.046H148.196C148.214 73.522 148.392 73.9093 148.728 74.208C149.064 74.5067 149.474 74.656 149.96 74.656C150.454 74.656 150.818 74.5487 151.052 74.334C151.285 74.1193 151.462 73.8813 151.584 73.62L153.026 74.376C152.895 74.6187 152.704 74.8847 152.452 75.174C152.209 75.454 151.882 75.6967 151.472 75.902C151.061 76.098 150.538 76.196 149.904 76.196ZM148.21 71.73H151.458C151.42 71.3287 151.257 71.0067 150.968 70.764C150.688 70.5213 150.319 70.4 149.862 70.4C149.386 70.4 149.008 70.5213 148.728 70.764C148.448 71.0067 148.275 71.3287 148.21 71.73ZM158.319 76V66.2H162.351C162.967 66.2 163.508 66.326 163.975 66.578C164.451 66.8207 164.819 67.166 165.081 67.614C165.351 68.062 165.487 68.594 165.487 69.21V69.406C165.487 70.0127 165.347 70.5447 165.067 71.002C164.796 71.45 164.423 71.8 163.947 72.052C163.48 72.2947 162.948 72.416 162.351 72.416H160.167V76H158.319ZM160.167 70.736H162.169C162.607 70.736 162.962 70.6147 163.233 70.372C163.503 70.1293 163.639 69.798 163.639 69.378V69.238C163.639 68.818 163.503 68.4867 163.233 68.244C162.962 68.0013 162.607 67.88 162.169 67.88H160.167V70.736ZM169.964 76.196C169.273 76.196 168.652 76.056 168.102 75.776C167.551 75.496 167.117 75.09 166.8 74.558C166.482 74.026 166.324 73.3867 166.324 72.64V72.416C166.324 71.6693 166.482 71.03 166.8 70.498C167.117 69.966 167.551 69.56 168.102 69.28C168.652 69 169.273 68.86 169.964 68.86C170.654 68.86 171.275 69 171.826 69.28C172.376 69.56 172.81 69.966 173.128 70.498C173.445 71.03 173.604 71.6693 173.604 72.416V72.64C173.604 73.3867 173.445 74.026 173.128 74.558C172.81 75.09 172.376 75.496 171.826 75.776C171.275 76.056 170.654 76.196 169.964 76.196ZM169.964 74.628C170.505 74.628 170.953 74.4553 171.308 74.11C171.662 73.7553 171.84 73.2513 171.84 72.598V72.458C171.84 71.8047 171.662 71.3053 171.308 70.96C170.962 70.6053 170.514 70.428 169.964 70.428C169.422 70.428 168.974 70.6053 168.62 70.96C168.265 71.3053 168.088 71.8047 168.088 72.458V72.598C168.088 73.2513 168.265 73.7553 168.62 74.11C168.974 74.4553 169.422 74.628 169.964 74.628ZM175.232 76V69.056H176.968V69.84H177.22C177.323 69.56 177.491 69.3547 177.724 69.224C177.967 69.0933 178.247 69.028 178.564 69.028H179.404V70.596H178.536C178.088 70.596 177.719 70.7173 177.43 70.96C177.141 71.1933 176.996 71.5573 176.996 72.052V76H175.232ZM183.443 76C182.985 76 182.612 75.86 182.323 75.58C182.043 75.2907 181.903 74.908 181.903 74.432V70.512H180.167V69.056H181.903V66.9H183.667V69.056H185.571V70.512H183.667V74.124C183.667 74.404 183.797 74.544 184.059 74.544H185.403V76H183.443ZM189.324 76.196C188.829 76.196 188.386 76.112 187.994 75.944C187.602 75.7667 187.289 75.5147 187.056 75.188C186.832 74.852 186.72 74.446 186.72 73.97C186.72 73.494 186.832 73.0973 187.056 72.78C187.289 72.4533 187.606 72.2107 188.008 72.052C188.418 71.884 188.885 71.8 189.408 71.8H191.312V71.408C191.312 71.0813 191.209 70.8153 191.004 70.61C190.798 70.3953 190.472 70.288 190.024 70.288C189.585 70.288 189.258 70.3907 189.044 70.596C188.829 70.792 188.689 71.0487 188.624 71.366L187 70.82C187.112 70.4653 187.289 70.1433 187.532 69.854C187.784 69.5553 188.115 69.3173 188.526 69.14C188.946 68.9533 189.454 68.86 190.052 68.86C190.966 68.86 191.69 69.0887 192.222 69.546C192.754 70.0033 193.02 70.666 193.02 71.534V74.124C193.02 74.404 193.15 74.544 193.412 74.544H193.972V76H192.796C192.45 76 192.166 75.916 191.942 75.748C191.718 75.58 191.606 75.356 191.606 75.076V75.062H191.34C191.302 75.174 191.218 75.3233 191.088 75.51C190.957 75.6873 190.752 75.846 190.472 75.986C190.192 76.126 189.809 76.196 189.324 76.196ZM189.632 74.768C190.126 74.768 190.528 74.6327 190.836 74.362C191.153 74.082 191.312 73.7133 191.312 73.256V73.116H189.534C189.207 73.116 188.95 73.186 188.764 73.326C188.577 73.466 188.484 73.662 188.484 73.914C188.484 74.166 188.582 74.3713 188.778 74.53C188.974 74.6887 189.258 74.768 189.632 74.768ZM195.261 76V66.2H197.025V76H195.261Z" fill="black"/>
<path d="M42.2235 128.308C41.1235 128.308 40.1408 128.073 39.2755 127.604C38.4102 127.12 37.7282 126.416 37.2295 125.492C36.7308 124.568 36.4815 123.439 36.4815 122.104V118.496C36.4815 116.487 37.0315 114.954 38.1315 113.898C39.2315 112.827 40.7202 112.292 42.5975 112.292C44.4455 112.292 45.8682 112.798 46.8655 113.81C47.8628 114.807 48.3615 116.149 48.3615 117.836V117.946H46.0075V117.77C46.0075 117.139 45.8828 116.575 45.6335 116.076C45.3842 115.563 45.0102 115.159 44.5115 114.866C44.0128 114.573 43.3748 114.426 42.5975 114.426C41.4242 114.426 40.5075 114.785 39.8475 115.504C39.1875 116.208 38.8575 117.191 38.8575 118.452V122.148C38.8575 123.395 39.1875 124.385 39.8475 125.118C40.5075 125.837 41.4315 126.196 42.6195 126.196C43.7928 126.196 44.6508 125.873 45.1935 125.228C45.7362 124.583 46.0075 123.747 46.0075 122.72V122.434H41.8715V120.388H48.3615V128H46.1615V126.438H45.8095C45.6775 126.717 45.4795 127.003 45.2155 127.296C44.9662 127.589 44.5995 127.831 44.1155 128.022C43.6462 128.213 43.0155 128.308 42.2235 128.308ZM56.5704 128.308C55.4851 128.308 54.5171 128.088 53.6664 127.648C52.8304 127.193 52.1704 126.548 51.6864 125.712C51.2024 124.876 50.9604 123.886 50.9604 122.742V122.412C50.9604 121.268 51.2024 120.285 51.6864 119.464C52.1704 118.628 52.8304 117.983 53.6664 117.528C54.5171 117.073 55.4851 116.846 56.5704 116.846C57.6557 116.846 58.6237 117.073 59.4744 117.528C60.3251 117.983 60.9924 118.628 61.4764 119.464C61.9604 120.285 62.2024 121.268 62.2024 122.412V122.742C62.2024 123.886 61.9604 124.876 61.4764 125.712C60.9924 126.548 60.3251 127.193 59.4744 127.648C58.6237 128.088 57.6557 128.308 56.5704 128.308ZM56.5704 126.284C57.5677 126.284 58.3744 125.969 58.9904 125.338C59.6211 124.693 59.9364 123.805 59.9364 122.676V122.478C59.9364 121.349 59.6284 120.469 59.0124 119.838C58.3964 119.193 57.5824 118.87 56.5704 118.87C55.5877 118.87 54.7811 119.193 54.1504 119.838C53.5344 120.469 53.2264 121.349 53.2264 122.478V122.676C53.2264 123.805 53.5344 124.693 54.1504 125.338C54.7811 125.969 55.5877 126.284 56.5704 126.284ZM70.1056 128.308C69.0202 128.308 68.0522 128.088 67.2016 127.648C66.3656 127.193 65.7056 126.548 65.2216 125.712C64.7376 124.876 64.4956 123.886 64.4956 122.742V122.412C64.4956 121.268 64.7376 120.285 65.2216 119.464C65.7056 118.628 66.3656 117.983 67.2016 117.528C68.0522 117.073 69.0202 116.846 70.1056 116.846C71.1909 116.846 72.1589 117.073 73.0096 117.528C73.8602 117.983 74.5276 118.628 75.0116 119.464C75.4956 120.285 75.7376 121.268 75.7376 122.412V122.742C75.7376 123.886 75.4956 124.876 75.0116 125.712C74.5276 126.548 73.8602 127.193 73.0096 127.648C72.1589 128.088 71.1909 128.308 70.1056 128.308ZM70.1056 126.284C71.1029 126.284 71.9096 125.969 72.5256 125.338C73.1562 124.693 73.4716 123.805 73.4716 122.676V122.478C73.4716 121.349 73.1636 120.469 72.5476 119.838C71.9316 119.193 71.1176 118.87 70.1056 118.87C69.1229 118.87 68.3162 119.193 67.6856 119.838C67.0696 120.469 66.7616 121.349 66.7616 122.478V122.676C66.7616 123.805 67.0696 124.693 67.6856 125.338C68.3162 125.969 69.1229 126.284 70.1056 126.284ZM83.0467 128.308C82.1521 128.308 81.3234 128.088 80.5607 127.648C79.7981 127.208 79.1821 126.577 78.7127 125.756C78.2581 124.92 78.0307 123.915 78.0307 122.742V122.412C78.0307 121.253 78.2581 120.256 78.7127 119.42C79.1674 118.584 79.7761 117.946 80.5387 117.506C81.3014 117.066 82.1374 116.846 83.0467 116.846C83.7507 116.846 84.3374 116.934 84.8067 117.11C85.2907 117.286 85.6867 117.513 85.9947 117.792C86.3027 118.056 86.5374 118.335 86.6987 118.628H87.0507V112.6H89.3167V128H87.0947V126.46H86.7427C86.4641 126.929 86.0387 127.355 85.4667 127.736C84.9094 128.117 84.1027 128.308 83.0467 128.308ZM83.6847 126.328C84.6674 126.328 85.4741 126.013 86.1047 125.382C86.7501 124.751 87.0727 123.849 87.0727 122.676V122.478C87.0727 121.319 86.7574 120.425 86.1267 119.794C85.4961 119.163 84.6821 118.848 83.6847 118.848C82.7167 118.848 81.9101 119.163 81.2647 119.794C80.6341 120.425 80.3187 121.319 80.3187 122.478V122.676C80.3187 123.849 80.6341 124.751 81.2647 125.382C81.9101 126.013 82.7167 126.328 83.6847 126.328ZM98.1939 128V112.6H102.77L106.95 126.416H107.302V112.6H109.656V128H105.08L100.9 114.162H100.548V128H98.1939ZM117.906 128.308C116.806 128.308 115.845 128.081 115.024 127.626C114.202 127.157 113.557 126.504 113.088 125.668C112.633 124.817 112.406 123.835 112.406 122.72V122.456C112.406 121.327 112.633 120.344 113.088 119.508C113.542 118.657 114.173 118.005 114.98 117.55C115.801 117.081 116.747 116.846 117.818 116.846C118.859 116.846 119.768 117.081 120.546 117.55C121.338 118.005 121.954 118.643 122.394 119.464C122.834 120.285 123.054 121.246 123.054 122.346V123.204H114.716C114.745 124.157 115.06 124.92 115.662 125.492C116.278 126.049 117.04 126.328 117.95 126.328C118.8 126.328 119.438 126.137 119.864 125.756C120.304 125.375 120.641 124.935 120.876 124.436L122.746 125.404C122.54 125.815 122.24 126.247 121.844 126.702C121.462 127.157 120.956 127.538 120.326 127.846C119.695 128.154 118.888 128.308 117.906 128.308ZM114.738 121.466H120.744C120.685 120.645 120.392 120.007 119.864 119.552C119.336 119.083 118.646 118.848 117.796 118.848C116.945 118.848 116.248 119.083 115.706 119.552C115.178 120.007 114.855 120.645 114.738 121.466ZM126.84 128L124.992 117.154H127.258L128.622 126.482H128.974L130.866 117.154H134.54L136.41 126.482H136.762L138.126 117.154H140.392L138.544 128H134.738L132.868 118.694H132.516L130.646 128H126.84ZM147.477 128.308C146.099 128.308 144.955 128 144.045 127.384C143.136 126.768 142.579 125.837 142.373 124.59L144.485 124.084C144.603 124.685 144.801 125.162 145.079 125.514C145.358 125.866 145.703 126.115 146.113 126.262C146.539 126.409 146.993 126.482 147.477 126.482C148.196 126.482 148.746 126.343 149.127 126.064C149.523 125.785 149.721 125.426 149.721 124.986C149.721 124.546 149.538 124.223 149.171 124.018C148.805 123.813 148.262 123.644 147.543 123.512L146.795 123.38C146.062 123.248 145.395 123.057 144.793 122.808C144.192 122.559 143.715 122.214 143.363 121.774C143.011 121.334 142.835 120.769 142.835 120.08C142.835 119.053 143.217 118.261 143.979 117.704C144.742 117.132 145.754 116.846 147.015 116.846C148.233 116.846 149.23 117.125 150.007 117.682C150.799 118.225 151.313 118.965 151.547 119.904L149.435 120.498C149.303 119.838 149.025 119.376 148.599 119.112C148.174 118.833 147.646 118.694 147.015 118.694C146.399 118.694 145.915 118.811 145.563 119.046C145.211 119.266 145.035 119.581 145.035 119.992C145.035 120.432 145.204 120.755 145.541 120.96C145.893 121.165 146.363 121.319 146.949 121.422L147.719 121.554C148.497 121.686 149.208 121.869 149.853 122.104C150.499 122.339 151.005 122.676 151.371 123.116C151.753 123.556 151.943 124.143 151.943 124.876C151.943 125.961 151.54 126.805 150.733 127.406C149.927 128.007 148.841 128.308 147.477 128.308ZM154.79 123.402V112.6H157.1V123.402H154.79ZM155.956 128.308C155.443 128.308 155.01 128.139 154.658 127.802C154.321 127.465 154.152 127.032 154.152 126.504C154.152 125.976 154.321 125.551 154.658 125.228C155.01 124.891 155.443 124.722 155.956 124.722C156.469 124.722 156.895 124.891 157.232 125.228C157.584 125.565 157.76 125.991 157.76 126.504C157.76 127.032 157.584 127.465 157.232 127.802C156.895 128.139 156.469 128.308 155.956 128.308Z" fill="black"/>
<rect x="36" y="135" width="97" height="4" rx="2" fill="#D9D9D9"/>
<rect x="35" y="148" width="180" height="37" rx="5" fill="#CFEFF1"/>
<path d="M47.4487 171V163.3H50.7927C51.2767 163.3 51.6983 163.384 52.0577 163.553C52.417 163.722 52.6957 163.96 52.8937 164.268C53.0917 164.576 53.1907 164.939 53.1907 165.357V165.489C53.1907 165.951 53.0807 166.325 52.8607 166.611C52.6407 166.897 52.3693 167.106 52.0467 167.238V167.436C52.34 167.451 52.5673 167.553 52.7287 167.744C52.89 167.927 52.9707 168.173 52.9707 168.481V171H51.5187V168.69C51.5187 168.514 51.471 168.371 51.3757 168.261C51.2877 168.151 51.1373 168.096 50.9247 168.096H48.9007V171H47.4487ZM48.9007 166.776H50.6387C50.9833 166.776 51.251 166.684 51.4417 166.501C51.6397 166.31 51.7387 166.061 51.7387 165.753V165.643C51.7387 165.335 51.6433 165.089 51.4527 164.906C51.262 164.715 50.9907 164.62 50.6387 164.62H48.9007V166.776ZM56.9289 171.154C56.3862 171.154 55.9059 171.04 55.4879 170.813C55.0772 170.578 54.7545 170.252 54.5199 169.834C54.2925 169.409 54.1789 168.91 54.1789 168.338V168.206C54.1789 167.634 54.2925 167.139 54.5199 166.721C54.7472 166.296 55.0662 165.969 55.4769 165.742C55.8875 165.507 56.3642 165.39 56.9069 165.39C57.4422 165.39 57.9079 165.511 58.3039 165.753C58.6999 165.988 59.0079 166.318 59.2279 166.743C59.4479 167.161 59.5579 167.649 59.5579 168.206V168.679H55.5869C55.6015 169.053 55.7409 169.357 56.0049 169.592C56.2689 169.827 56.5915 169.944 56.9729 169.944C57.3615 169.944 57.6475 169.86 57.8309 169.691C58.0142 169.522 58.1535 169.335 58.2489 169.13L59.3819 169.724C59.2792 169.915 59.1289 170.124 58.9309 170.351C58.7402 170.571 58.4835 170.762 58.1609 170.923C57.8382 171.077 57.4275 171.154 56.9289 171.154ZM55.5979 167.645H58.1499C58.1205 167.33 57.9922 167.077 57.7649 166.886C57.5449 166.695 57.2552 166.6 56.8959 166.6C56.5219 166.6 56.2249 166.695 56.0049 166.886C55.7849 167.077 55.6492 167.33 55.5979 167.645ZM60.7915 173.2V165.544H62.1555V166.204H62.3535C62.4782 165.991 62.6725 165.804 62.9365 165.643C63.2005 165.474 63.5782 165.39 64.0695 165.39C64.5095 165.39 64.9165 165.5 65.2905 165.72C65.6645 165.933 65.9652 166.248 66.1925 166.666C66.4198 167.084 66.5335 167.59 66.5335 168.184V168.36C66.5335 168.954 66.4198 169.46 66.1925 169.878C65.9652 170.296 65.6645 170.615 65.2905 170.835C64.9165 171.048 64.5095 171.154 64.0695 171.154C63.7395 171.154 63.4608 171.114 63.2335 171.033C63.0135 170.96 62.8338 170.864 62.6945 170.747C62.5625 170.622 62.4562 170.498 62.3755 170.373H62.1775V173.2H60.7915ZM63.6515 169.944C64.0842 169.944 64.4398 169.808 64.7185 169.537C65.0045 169.258 65.1475 168.855 65.1475 168.327V168.217C65.1475 167.689 65.0045 167.289 64.7185 167.018C64.4325 166.739 64.0768 166.6 63.6515 166.6C63.2262 166.6 62.8705 166.739 62.5845 167.018C62.2985 167.289 62.1555 167.689 62.1555 168.217V168.327C62.1555 168.855 62.2985 169.258 62.5845 169.537C62.8705 169.808 63.2262 169.944 63.6515 169.944ZM70.4021 171.154C69.8595 171.154 69.3718 171.044 68.9391 170.824C68.5065 170.604 68.1655 170.285 67.9161 169.867C67.6668 169.449 67.5421 168.947 67.5421 168.36V168.184C67.5421 167.597 67.6668 167.095 67.9161 166.677C68.1655 166.259 68.5065 165.94 68.9391 165.72C69.3718 165.5 69.8595 165.39 70.4021 165.39C70.9448 165.39 71.4325 165.5 71.8651 165.72C72.2978 165.94 72.6388 166.259 72.8881 166.677C73.1375 167.095 73.2621 167.597 73.2621 168.184V168.36C73.2621 168.947 73.1375 169.449 72.8881 169.867C72.6388 170.285 72.2978 170.604 71.8651 170.824C71.4325 171.044 70.9448 171.154 70.4021 171.154ZM70.4021 169.922C70.8275 169.922 71.1795 169.786 71.4581 169.515C71.7368 169.236 71.8761 168.84 71.8761 168.327V168.217C71.8761 167.704 71.7368 167.311 71.4581 167.04C71.1868 166.761 70.8348 166.622 70.4021 166.622C69.9768 166.622 69.6248 166.761 69.3461 167.04C69.0675 167.311 68.9281 167.704 68.9281 168.217V168.327C68.9281 168.84 69.0675 169.236 69.3461 169.515C69.6248 169.786 69.9768 169.922 70.4021 169.922ZM74.5415 171V165.544H75.9055V166.16H76.1035C76.1842 165.94 76.3162 165.779 76.4995 165.676C76.6902 165.573 76.9102 165.522 77.1595 165.522H77.8195V166.754H77.1375C76.7855 166.754 76.4958 166.849 76.2685 167.04C76.0412 167.223 75.9275 167.509 75.9275 167.898V171H74.5415ZM80.9928 171C80.6335 171 80.3401 170.89 80.1128 170.67C79.8928 170.443 79.7828 170.142 79.7828 169.768V166.688H78.4188V165.544H79.7828V163.85H81.1688V165.544H82.6648V166.688H81.1688V169.526C81.1688 169.746 81.2715 169.856 81.4768 169.856H82.5328V171H80.9928ZM86.7124 171V165.544H88.0984V171H86.7124ZM87.4054 164.906C87.156 164.906 86.9434 164.825 86.7674 164.664C86.5987 164.503 86.5144 164.29 86.5144 164.026C86.5144 163.762 86.5987 163.549 86.7674 163.388C86.9434 163.227 87.156 163.146 87.4054 163.146C87.662 163.146 87.8747 163.227 88.0434 163.388C88.212 163.549 88.2964 163.762 88.2964 164.026C88.2964 164.29 88.212 164.503 88.0434 164.664C87.8747 164.825 87.662 164.906 87.4054 164.906ZM89.6343 171V165.544H90.9983V166.259H91.1963C91.2843 166.068 91.4493 165.889 91.6913 165.72C91.9333 165.544 92.2999 165.456 92.7913 165.456C93.2166 165.456 93.5869 165.555 93.9023 165.753C94.2249 165.944 94.4743 166.211 94.6503 166.556C94.8263 166.893 94.9143 167.289 94.9143 167.744V171H93.5283V167.854C93.5283 167.443 93.4256 167.135 93.2203 166.93C93.0223 166.725 92.7363 166.622 92.3623 166.622C91.9369 166.622 91.6069 166.765 91.3723 167.051C91.1376 167.33 91.0203 167.722 91.0203 168.228V171H89.6343ZM97.1642 171V166.688H95.7782V165.544H97.1642V164.532C97.1642 164.158 97.2742 163.861 97.4942 163.641C97.7215 163.414 98.0149 163.3 98.3742 163.3H99.8042V164.444H98.8582C98.6529 164.444 98.5502 164.554 98.5502 164.774V165.544H99.9802V166.688H98.5502V171H97.1642ZM103.467 171.154C102.924 171.154 102.436 171.044 102.004 170.824C101.571 170.604 101.23 170.285 100.981 169.867C100.731 169.449 100.607 168.947 100.607 168.36V168.184C100.607 167.597 100.731 167.095 100.981 166.677C101.23 166.259 101.571 165.94 102.004 165.72C102.436 165.5 102.924 165.39 103.467 165.39C104.009 165.39 104.497 165.5 104.93 165.72C105.362 165.94 105.703 166.259 105.953 166.677C106.202 167.095 106.327 167.597 106.327 168.184V168.36C106.327 168.947 106.202 169.449 105.953 169.867C105.703 170.285 105.362 170.604 104.93 170.824C104.497 171.044 104.009 171.154 103.467 171.154ZM103.467 169.922C103.892 169.922 104.244 169.786 104.523 169.515C104.801 169.236 104.941 168.84 104.941 168.327V168.217C104.941 167.704 104.801 167.311 104.523 167.04C104.251 166.761 103.899 166.622 103.467 166.622C103.041 166.622 102.689 166.761 102.411 167.04C102.132 167.311 101.993 167.704 101.993 168.217V168.327C101.993 168.84 102.132 169.236 102.411 169.515C102.689 169.786 103.041 169.922 103.467 169.922ZM107.606 171V165.544H108.97V166.16H109.168C109.249 165.94 109.381 165.779 109.564 165.676C109.755 165.573 109.975 165.522 110.224 165.522H110.884V166.754H110.202C109.85 166.754 109.56 166.849 109.333 167.04C109.106 167.223 108.992 167.509 108.992 167.898V171H107.606ZM111.967 171V165.544H113.331V166.138H113.529C113.625 165.955 113.782 165.797 114.002 165.665C114.222 165.526 114.512 165.456 114.871 165.456C115.26 165.456 115.572 165.533 115.806 165.687C116.041 165.834 116.221 166.028 116.345 166.27H116.543C116.668 166.035 116.844 165.841 117.071 165.687C117.299 165.533 117.621 165.456 118.039 165.456C118.377 165.456 118.681 165.529 118.952 165.676C119.231 165.815 119.451 166.032 119.612 166.325C119.781 166.611 119.865 166.974 119.865 167.414V171H118.479V167.513C118.479 167.212 118.402 166.989 118.248 166.842C118.094 166.688 117.878 166.611 117.599 166.611C117.284 166.611 117.038 166.714 116.862 166.919C116.694 167.117 116.609 167.403 116.609 167.777V171H115.223V167.513C115.223 167.212 115.146 166.989 114.992 166.842C114.838 166.688 114.622 166.611 114.343 166.611C114.028 166.611 113.782 166.714 113.606 166.919C113.438 167.117 113.353 167.403 113.353 167.777V171H111.967ZM123.05 171.154C122.661 171.154 122.313 171.088 122.005 170.956C121.697 170.817 121.451 170.619 121.268 170.362C121.092 170.098 121.004 169.779 121.004 169.405C121.004 169.031 121.092 168.719 121.268 168.47C121.451 168.213 121.701 168.023 122.016 167.898C122.339 167.766 122.705 167.7 123.116 167.7H124.612V167.392C124.612 167.135 124.531 166.926 124.37 166.765C124.209 166.596 123.952 166.512 123.6 166.512C123.255 166.512 122.999 166.593 122.83 166.754C122.661 166.908 122.551 167.11 122.5 167.359L121.224 166.93C121.312 166.651 121.451 166.398 121.642 166.171C121.84 165.936 122.1 165.749 122.423 165.61C122.753 165.463 123.153 165.39 123.622 165.39C124.341 165.39 124.909 165.57 125.327 165.929C125.745 166.288 125.954 166.809 125.954 167.491V169.526C125.954 169.746 126.057 169.856 126.262 169.856H126.702V171H125.778C125.507 171 125.283 170.934 125.107 170.802C124.931 170.67 124.843 170.494 124.843 170.274V170.263H124.634C124.605 170.351 124.539 170.468 124.436 170.615C124.333 170.754 124.172 170.879 123.952 170.989C123.732 171.099 123.431 171.154 123.05 171.154ZM123.292 170.032C123.681 170.032 123.996 169.926 124.238 169.713C124.487 169.493 124.612 169.203 124.612 168.844V168.734H123.215C122.958 168.734 122.757 168.789 122.61 168.899C122.463 169.009 122.39 169.163 122.39 169.361C122.39 169.559 122.467 169.72 122.621 169.845C122.775 169.97 122.999 170.032 123.292 170.032ZM129.408 171C129.049 171 128.755 170.89 128.528 170.67C128.308 170.443 128.198 170.142 128.198 169.768V166.688H126.834V165.544H128.198V163.85H129.584V165.544H131.08V166.688H129.584V169.526C129.584 169.746 129.687 169.856 129.892 169.856H130.948V171H129.408ZM132.334 171V165.544H133.72V171H132.334ZM133.027 164.906C132.778 164.906 132.565 164.825 132.389 164.664C132.221 164.503 132.136 164.29 132.136 164.026C132.136 163.762 132.221 163.549 132.389 163.388C132.565 163.227 132.778 163.146 133.027 163.146C133.284 163.146 133.497 163.227 133.665 163.388C133.834 163.549 133.918 163.762 133.918 164.026C133.918 164.29 133.834 164.503 133.665 164.664C133.497 164.825 133.284 164.906 133.027 164.906ZM137.852 171.154C137.31 171.154 136.822 171.044 136.389 170.824C135.957 170.604 135.616 170.285 135.366 169.867C135.117 169.449 134.992 168.947 134.992 168.36V168.184C134.992 167.597 135.117 167.095 135.366 166.677C135.616 166.259 135.957 165.94 136.389 165.72C136.822 165.5 137.31 165.39 137.852 165.39C138.395 165.39 138.883 165.5 139.315 165.72C139.748 165.94 140.089 166.259 140.338 166.677C140.588 167.095 140.712 167.597 140.712 168.184V168.36C140.712 168.947 140.588 169.449 140.338 169.867C140.089 170.285 139.748 170.604 139.315 170.824C138.883 171.044 138.395 171.154 137.852 171.154ZM137.852 169.922C138.278 169.922 138.63 169.786 138.908 169.515C139.187 169.236 139.326 168.84 139.326 168.327V168.217C139.326 167.704 139.187 167.311 138.908 167.04C138.637 166.761 138.285 166.622 137.852 166.622C137.427 166.622 137.075 166.761 136.796 167.04C136.518 167.311 136.378 167.704 136.378 168.217V168.327C136.378 168.84 136.518 169.236 136.796 169.515C137.075 169.786 137.427 169.922 137.852 169.922ZM141.992 171V165.544H143.356V166.259H143.554C143.642 166.068 143.807 165.889 144.049 165.72C144.291 165.544 144.657 165.456 145.149 165.456C145.574 165.456 145.944 165.555 146.26 165.753C146.582 165.944 146.832 166.211 147.008 166.556C147.184 166.893 147.272 167.289 147.272 167.744V171H145.886V167.854C145.886 167.443 145.783 167.135 145.578 166.93C145.38 166.725 145.094 166.622 144.72 166.622C144.294 166.622 143.964 166.765 143.73 167.051C143.495 167.33 143.378 167.722 143.378 168.228V171H141.992Z" fill="black"/>
<g filter="url(#filter2_d_16_247)">
<rect x="159" y="159" width="46.1307" height="16" rx="2" fill="#62C0A5"/>
<rect x="159.5" y="159.5" width="45.1307" height="15" rx="1.5" stroke="black"/>
</g>
<path d="M175.393 170.112C174.699 170.112 174.15 169.92 173.745 169.536C173.339 169.147 173.137 168.592 173.137 167.872V166.528C173.137 165.808 173.339 165.256 173.745 164.872C174.15 164.483 174.699 164.288 175.393 164.288C176.081 164.288 176.611 164.477 176.985 164.856C177.363 165.229 177.553 165.744 177.553 166.4V166.448H176.513V166.368C176.513 166.037 176.419 165.765 176.233 165.552C176.051 165.339 175.771 165.232 175.393 165.232C175.019 165.232 174.726 165.347 174.513 165.576C174.299 165.805 174.193 166.117 174.193 166.512V167.888C174.193 168.277 174.299 168.589 174.513 168.824C174.726 169.053 175.019 169.168 175.393 169.168C175.771 169.168 176.051 169.061 176.233 168.848C176.419 168.629 176.513 168.357 176.513 168.032V167.888H177.553V168C177.553 168.656 177.363 169.173 176.985 169.552C176.611 169.925 176.081 170.112 175.393 170.112ZM178.445 170V164.4H179.453V170H178.445ZM182.378 170.112C181.983 170.112 181.634 170.029 181.33 169.864C181.031 169.693 180.797 169.456 180.626 169.152C180.461 168.843 180.378 168.48 180.378 168.064V167.968C180.378 167.552 180.461 167.192 180.626 166.888C180.791 166.579 181.023 166.341 181.322 166.176C181.621 166.005 181.967 165.92 182.362 165.92C182.751 165.92 183.09 166.008 183.378 166.184C183.666 166.355 183.89 166.595 184.05 166.904C184.21 167.208 184.29 167.563 184.29 167.968V168.312H181.402C181.413 168.584 181.514 168.805 181.706 168.976C181.898 169.147 182.133 169.232 182.41 169.232C182.693 169.232 182.901 169.171 183.034 169.048C183.167 168.925 183.269 168.789 183.338 168.64L184.162 169.072C184.087 169.211 183.978 169.363 183.834 169.528C183.695 169.688 183.509 169.827 183.274 169.944C183.039 170.056 182.741 170.112 182.378 170.112ZM181.41 167.56H183.266C183.245 167.331 183.151 167.147 182.986 167.008C182.826 166.869 182.615 166.8 182.354 166.8C182.082 166.8 181.866 166.869 181.706 167.008C181.546 167.147 181.447 167.331 181.41 167.56ZM186.419 170.112C186.137 170.112 185.883 170.064 185.659 169.968C185.435 169.867 185.257 169.723 185.123 169.536C184.995 169.344 184.931 169.112 184.931 168.84C184.931 168.568 184.995 168.341 185.123 168.16C185.257 167.973 185.438 167.835 185.667 167.744C185.902 167.648 186.169 167.6 186.467 167.6H187.555V167.376C187.555 167.189 187.497 167.037 187.379 166.92C187.262 166.797 187.075 166.736 186.819 166.736C186.569 166.736 186.382 166.795 186.259 166.912C186.137 167.024 186.057 167.171 186.019 167.352L185.091 167.04C185.155 166.837 185.257 166.653 185.395 166.488C185.539 166.317 185.729 166.181 185.963 166.08C186.203 165.973 186.494 165.92 186.835 165.92C187.358 165.92 187.771 166.051 188.075 166.312C188.379 166.573 188.531 166.952 188.531 167.448V168.928C188.531 169.088 188.606 169.168 188.755 169.168H189.075V170H188.403C188.206 170 188.043 169.952 187.915 169.856C187.787 169.76 187.723 169.632 187.723 169.472V169.464H187.571C187.55 169.528 187.502 169.613 187.427 169.72C187.353 169.821 187.235 169.912 187.075 169.992C186.915 170.072 186.697 170.112 186.419 170.112ZM186.595 169.296C186.878 169.296 187.107 169.219 187.283 169.064C187.465 168.904 187.555 168.693 187.555 168.432V168.352H186.539C186.353 168.352 186.206 168.392 186.099 168.472C185.993 168.552 185.939 168.664 185.939 168.808C185.939 168.952 185.995 169.069 186.107 169.16C186.219 169.251 186.382 169.296 186.595 169.296ZM189.812 170V166.032H190.804V166.48H190.948C191.007 166.32 191.103 166.203 191.236 166.128C191.375 166.053 191.535 166.016 191.716 166.016H192.196V166.912H191.7C191.444 166.912 191.234 166.981 191.068 167.12C190.903 167.253 190.82 167.461 190.82 167.744V170H189.812Z" fill="white"/>
<path d="M175.312 170.112C174.619 170.112 174.07 169.92 173.664 169.536C173.259 169.147 173.056 168.592 173.056 167.872V166.528C173.056 165.808 173.259 165.256 173.664 164.872C174.07 164.483 174.619 164.288 175.312 164.288C176 164.288 176.531 164.477 176.904 164.856C177.283 165.229 177.472 165.744 177.472 166.4V166.448H176.432V166.368C176.432 166.037 176.339 165.765 176.152 165.552C175.971 165.339 175.691 165.232 175.312 165.232C174.939 165.232 174.646 165.347 174.432 165.576C174.219 165.805 174.112 166.117 174.112 166.512V167.888C174.112 168.277 174.219 168.589 174.432 168.824C174.646 169.053 174.939 169.168 175.312 169.168C175.691 169.168 175.971 169.061 176.152 168.848C176.339 168.629 176.432 168.357 176.432 168.032V167.888H177.472V168C177.472 168.656 177.283 169.173 176.904 169.552C176.531 169.925 176 170.112 175.312 170.112ZM178.365 170V164.4H179.373V170H178.365ZM182.298 170.112C181.903 170.112 181.554 170.029 181.25 169.864C180.951 169.693 180.716 169.456 180.546 169.152C180.38 168.843 180.298 168.48 180.298 168.064V167.968C180.298 167.552 180.38 167.192 180.546 166.888C180.711 166.579 180.943 166.341 181.242 166.176C181.54 166.005 181.887 165.92 182.282 165.92C182.671 165.92 183.01 166.008 183.298 166.184C183.586 166.355 183.81 166.595 183.97 166.904C184.13 167.208 184.21 167.563 184.21 167.968V168.312H181.322C181.332 168.584 181.434 168.805 181.626 168.976C181.818 169.147 182.052 169.232 182.33 169.232C182.612 169.232 182.82 169.171 182.954 169.048C183.087 168.925 183.188 168.789 183.258 168.64L184.082 169.072C184.007 169.211 183.898 169.363 183.754 169.528C183.615 169.688 183.428 169.827 183.194 169.944C182.959 170.056 182.66 170.112 182.298 170.112ZM181.33 167.56H183.186C183.164 167.331 183.071 167.147 182.906 167.008C182.746 166.869 182.535 166.8 182.274 166.8C182.002 166.8 181.786 166.869 181.626 167.008C181.466 167.147 181.367 167.331 181.33 167.56ZM186.339 170.112C186.056 170.112 185.803 170.064 185.579 169.968C185.355 169.867 185.176 169.723 185.043 169.536C184.915 169.344 184.851 169.112 184.851 168.84C184.851 168.568 184.915 168.341 185.043 168.16C185.176 167.973 185.358 167.835 185.587 167.744C185.822 167.648 186.088 167.6 186.387 167.6H187.475V167.376C187.475 167.189 187.416 167.037 187.299 166.92C187.182 166.797 186.995 166.736 186.739 166.736C186.488 166.736 186.302 166.795 186.179 166.912C186.056 167.024 185.976 167.171 185.939 167.352L185.011 167.04C185.075 166.837 185.176 166.653 185.315 166.488C185.459 166.317 185.648 166.181 185.883 166.08C186.123 165.973 186.414 165.92 186.755 165.92C187.278 165.92 187.691 166.051 187.995 166.312C188.299 166.573 188.451 166.952 188.451 167.448V168.928C188.451 169.088 188.526 169.168 188.675 169.168H188.995V170H188.323C188.126 170 187.963 169.952 187.835 169.856C187.707 169.76 187.643 169.632 187.643 169.472V169.464H187.491C187.47 169.528 187.422 169.613 187.347 169.72C187.272 169.821 187.155 169.912 186.995 169.992C186.835 170.072 186.616 170.112 186.339 170.112ZM186.515 169.296C186.798 169.296 187.027 169.219 187.203 169.064C187.384 168.904 187.475 168.693 187.475 168.432V168.352H186.459C186.272 168.352 186.126 168.392 186.019 168.472C185.912 168.552 185.859 168.664 185.859 168.808C185.859 168.952 185.915 169.069 186.027 169.16C186.139 169.251 186.302 169.296 186.515 169.296ZM189.732 170V166.032H190.724V166.48H190.868C190.927 166.32 191.023 166.203 191.156 166.128C191.295 166.053 191.455 166.016 191.636 166.016H192.116V166.912H191.62C191.364 166.912 191.153 166.981 190.988 167.12C190.823 167.253 190.74 167.461 190.74 167.744V170H189.732Z" fill="white"/>
<rect x="36" y="198" width="178" height="219" rx="4" fill="white" stroke="#D9D9D9" stroke-width="2" stroke-dasharray="7 7"/>
<rect x="53" y="213" width="52" height="3" rx="1.5" fill="#62C0A5"/>
<rect x="53" y="220" width="86" height="5" rx="2.5" fill="#7CC9B3"/>
<rect x="53" y="250" width="65" height="3" rx="1.5" fill="#B7E4E8"/>
<rect x="53" y="257" width="106" height="5" rx="2.5" fill="#BDE6E9"/>
<rect x="53" y="287" width="30" height="3" rx="1.5" fill="#F8BED4"/>
<rect x="53" y="294" width="68" height="5" rx="2.5" fill="#F9CADC"/>
<path d="M53 325.5C53 324.672 53.6716 324 54.5 324H116.5C117.328 324 118 324.672 118 325.5C118 326.328 117.328 327 116.5 327H54.5C53.6716 327 53 326.328 53 325.5Z" fill="#B7E4E8"/>
<rect x="53" y="331" width="132" height="7" rx="3.5" fill="#BDE6E9"/>
<rect x="53" y="342" width="106" height="5" rx="2.5" fill="#BDE6E9"/>
<rect x="53" y="372" width="44.1176" height="3" rx="1.5" fill="#F8BED4"/>
<rect x="53" y="379" width="100" height="5" rx="2.5" fill="#F9CADC"/>
</g>
<defs>
<filter id="filter0_d_16_247" x="0" y="0" width="258" height="453" filterUnits="userSpaceOnUse" color-interpolation-filters="sRGB">
<feFlood flood-opacity="0" result="BackgroundImageFix"/>
<feColorMatrix in="SourceAlpha" type="matrix" values="0 0 0 0 0 0 0 0 0 0 0 0 0 0 0 0 0 0 127 0" result="hardAlpha"/>
<feOffset dx="10" dy="10"/>
<feComposite in2="hardAlpha" operator="out"/>
<feColorMatrix type="matrix" values="0 0 0 0 0.486275 0 0 0 0 0.788235 0 0 0 0 0.701961 0 0 0 1 0"/>
<feBlend mode="normal" in2="BackgroundImageFix" result="effect1_dropShadow_16_247"/>
<feBlend mode="normal" in="SourceGraphic" in2="effect1_dropShadow_16_247" result="shape"/>
</filter>
<filter id="filter1_d_16_247" x="35" y="53" width="36.4047" height="36.4047" filterUnits="userSpaceOnUse" color-interpolation-filters="sRGB">
<feFlood flood-opacity="0" result="BackgroundImageFix"/>
<feColorMatrix in="SourceAlpha" type="matrix" values="0 0 0 0 0 0 0 0 0 0 0 0 0 0 0 0 0 0 127 0" result="hardAlpha"/>
<feOffset dx="2" dy="2"/>
<feComposite in2="hardAlpha" operator="out"/>
<feColorMatrix type="matrix" values="0 0 0 0 0 0 0 0 0 0 0 0 0 0 0 0 0 0 1 0"/>
<feBlend mode="normal" in2="BackgroundImageFix" result="effect1_dropShadow_16_247"/>
<feBlend mode="normal" in="SourceGraphic" in2="effect1_dropShadow_16_247" result="shape"/>
</filter>
<filter id="filter2_d_16_247" x="159" y="159" width="47.1306" height="17" filterUnits="userSpaceOnUse" color-interpolation-filters="sRGB">
<feFlood flood-opacity="0" result="BackgroundImageFix"/>
<feColorMatrix in="SourceAlpha" type="matrix" values="0 0 0 0 0 0 0 0 0 0 0 0 0 0 0 0 0 0 127 0" result="hardAlpha"/>
<feOffset dx="1" dy="1"/>
<feComposite in2="hardAlpha" operator="out"/>
<feColorMatrix type="matrix" values="0 0 0 0 0 0 0 0 0 0 0 0 0 0 0 0 0 0 1 0"/>
<feBlend mode="normal" in2="BackgroundImageFix" result="effect1_dropShadow_16_247"/>
<feBlend mode="normal" in="SourceGraphic" in2="effect1_dropShadow_16_247" result="shape"/>
</filter>
</defs>
</svg>
